<svg id="Layer_1" data-name="Layer 1" xmlns="http://www.w3.org/2000/svg" viewBox="0 0 195.7 241.53"><title>icon-film</title><path d="M184.13,237.25c-2.58,2.39-1.54,5.48-1.56,8.2-.12,14.79-.07,29.58-.09,44.36,0,5.47-1.06,10.37-7.94,10.37s-8-4.87-8-10.35c0-14.26,0-28.52-.09-42.78,0-2.75,1.27-6.92-1.88-7.83-3.58-1-3.93,3.5-5.13,5.83-7.58,14.81-14.91,29.74-22.42,44.59a32,32,0,0,1-4.59,7.34,10.61,10.61,0,0,1-13.76,2.14c-4.88-2.87-2.33-7.48-.49-11.25q16.62-34.18,33.38-68.28c4.07-8.32,3.39-9.43-5.78-9.58-4.22-.07-8.45,0-12.67,0-11-.23-13.93-3.13-14-14.37-.13-15.32-.19-30.63,0-45.95.08-5.94-2.25-9.79-7.24-13-19.4-12.35-24.49-38.91-11.48-58.63,12.6-19.1,39-24.21,58.08-11.27a47.71,47.71,0,0,1,13.09,13.59c5.31,8.08,5.1,7.91,10-.09,7.6-12.33,17.91-20.56,33.22-21,20.48-.64,37.62,10.73,43.34,29.06s-1.76,37.8-18.8,48.79a42.16,42.16,0,0,0-5.27,3.47c-2.13,1.89-3.16,4.49-1.57,7.1s4.17,1.55,6.39.73c11.38-4.23,22.73-8.56,34.13-12.74,9.71-3.56,13.53-1.73,14.49,8.6a297.38,297.38,0,0,1-.15,58.47c-.9,8.53-4.11,10.76-12.23,8.06-10.51-3.49-20.75-7.8-31-12-6.25-2.54-11.83-5.2-14.39,4.67-1.24,4.78-6.17,6.21-10.92,6.36-5,.16-10,0-15,.14-8.61.19-10.09,2.12-6.4,10.08,6,12.93,12.53,25.61,18.86,38.39,4.81,9.7,9.67,19.38,14.46,29.08,2.07,4.19,4.1,8.84-1.4,11.68-4.9,2.53-9.89,1.53-13.45-3.09a41.63,41.63,0,0,1-4-6.82c-7.59-15.1-15.09-30.25-22.74-45.32C187.89,241.59,187.44,238.4,184.13,237.25Z" transform="translate(-93.21 -59.24)"/></svg>