<svg id="Layer_1" data-name="Layer 1" xmlns="http://www.w3.org/2000/svg" viewBox="0 0 360 360"><defs><style>.cls-1{fill:#fff;}</style></defs><title>Artboard 1</title><path d="M173.3,95.1c.35-6,.57-10.29.84-14.54,1.64-25,13.91-37.79,37.75-40.57a220.83,220.83,0,0,0,31.89-6C264,28.51,267.84,25.35,279.7,8.13L289,11c-3.84,14.76-13.36,24.13-26.07,28.56-15.3,5.34-31.16,10.79-47.06,11.95-27,2-32.22,19.26-29.13,44.38,13.87-3.64,27.95-5.92,41-11,25.91-10.18,38.45-7.8,58.63,12.74,32.55,33.14,47,75.79,58.32,120,5.82,22.83,9.47,46.08,7,70C346.89,333.83,319,335.44,287.82,317c-13.74-8.15-25.76-19.51-38.4-29.62-16.88-13.51-34.8-24.3-56.35-27.68-20.09-3.16-39,.38-56,11.22-11.55,7.35-21.77,17-32.59,25.59s-20.8,19.26-32.87,25.22c-10.1,5-22.68,6-34.16,6-12.13,0-22-13.19-25.89-29.66-6.79-28.61-4.18-57.25,2.59-85,5.85-24,13.75-47.88,24.3-70,8-16.8,20.43-31.9,33-45.58,18.57-20.14,40.73-26.29,66.6-13.2C148.69,89.67,161,91.45,173.3,95.1Zm-57.55,95.31c19.54.07,33.82-13.71,33.75-32.56-.07-18.18-14.44-32.44-33-32.72-17.29-.26-32,14.55-32.15,32.41C84.2,175.77,98.12,190.35,115.75,190.41Zm126.32-39.15a15.07,15.07,0,0,0-14.53-15.36c-8.41-.22-16.92,7.42-16.93,15.21s8.6,15.59,16.83,15.47C235.42,166.46,242,159.56,242.07,151.27Zm45,4.09a15.47,15.47,0,0,0-15.73-15.1c-7.95.32-14.24,7.26-14.13,15.59.11,8.13,6.82,15.09,14.66,15.19C280.12,171.14,287.27,163.77,287.09,155.36Zm-40.22,43a14.77,14.77,0,0,0,14.94-14.64,15.46,15.46,0,0,0-15.15-15.64c-8.33,0-15,7.16-14.74,15.82A14.66,14.66,0,0,0,246.87,198.35Zm20.64-75.13a15.28,15.28,0,0,0-15.67-15.06c-8,.36-14.18,7.15-14.06,15.54.11,8.1,6.79,15,14.56,15.13C260.61,138.94,267.63,131.71,267.51,123.23Z"/><path class="cls-1" d="M115.75,190.41c-17.63-.06-31.54-14.65-31.37-32.87.17-17.86,14.87-32.67,32.15-32.41,18.52.28,32.9,14.54,33,32.72C149.57,176.7,135.28,190.48,115.75,190.41Zm.61-12.27c11.51-.2,21.73-9.95,21.53-20.51-.21-11-10.09-19.79-22.11-19.71a20.12,20.12,0,0,0,.58,40.23Z"/><path class="cls-1" d="M242.07,151.27c-.05,8.29-6.65,15.2-14.64,15.32-8.23.13-16.84-7.79-16.83-15.47s8.53-15.43,16.93-15.21A15.07,15.07,0,0,1,242.07,151.27Z"/><path class="cls-1" d="M287.09,155.36c.18,8.41-7,15.78-15.2,15.68-7.84-.1-14.56-7.05-14.66-15.19-.11-8.33,6.19-15.28,14.13-15.59A15.47,15.47,0,0,1,287.09,155.36Z"/><path class="cls-1" d="M246.87,198.35a14.66,14.66,0,0,1-15-14.46c-.25-8.66,6.42-15.82,14.74-15.82a15.46,15.46,0,0,1,15.15,15.64A14.77,14.77,0,0,1,246.87,198.35Z"/><path class="cls-1" d="M267.51,123.23c.12,8.49-6.9,15.71-15.17,15.62-7.77-.09-14.45-7-14.56-15.13-.12-8.39,6-15.18,14.06-15.54A15.28,15.28,0,0,1,267.51,123.23Z"/><path d="M116.36,178.14a20.12,20.12,0,0,1-.58-40.23c12-.08,21.9,8.73,22.11,19.71C138.09,168.2,127.86,177.94,116.36,178.14Z"/></svg>